# MagicaVoxel @ Ephtracy

# group
o 

# material
mtllib body.mtl
usemtl palette

# normals
vn -1 0 0
vn 1 0 0
vn 0 0 1
vn 0 0 -1
vn 0 -1 0
vn 0 1 0

# texcoords
vt 0.720703 0.5
vt 0.771484 0.5

# verts
v -0.2 0 0.3
v -0.2 0 -0.2
v -0.2 0.2 0.3
v -0.2 0.2 -0.2
v -0.2 0.3 0.2
v -0.2 0.3 0.1
v -0.2 0.5 0.2
v -0.2 0.5 0.1
v -0.1 0.2 0.2
v -0.1 0.2 -0.1
v -0.1 0.3 0.3
v -0.1 0.3 0.2
v -0.1 0.3 0.1
v -0.1 0.4 0
v -0.1 0.4 -0.1
v -0.1 0.5 0.3
v -0.1 0.5 0.2
v -0.1 0.5 0.1
v -0.1 0.5 0
v 0.1 0.2 0.2
v 0.1 0.2 -0.1
v 0.1 0.3 0.3
v 0.1 0.3 0.2
v 0.1 0.3 0.1
v 0.1 0.4 0
v 0.1 0.4 -0.1
v 0.1 0.5 0.3
v 0.1 0.5 0.2
v 0.1 0.5 0.1
v 0.1 0.5 0
v 0.2 0 0.3
v 0.2 0 -0.2
v 0.2 0.2 0.3
v 0.2 0.2 -0.2
v 0.2 0.3 0.2
v 0.2 0.3 0.1
v 0.2 0.5 0.2
v 0.2 0.5 0.1
v -0.2 0 0.3
v -0.2 0.2 0.3
v -0.1 0.3 0.3
v -0.1 0.5 0.3
v 0.1 0.3 0.3
v 0.1 0.5 0.3
v 0.2 0 0.3
v 0.2 0.2 0.3
v -0.2 0.3 0.2
v -0.2 0.5 0.2
v -0.1 0.2 0.2
v -0.1 0.3 0.2
v -0.1 0.5 0.2
v 0.1 0.2 0.2
v 0.1 0.3 0.2
v 0.1 0.5 0.2
v 0.2 0.3 0.2
v 0.2 0.5 0.2
v -0.2 0.3 0.1
v -0.2 0.5 0.1
v -0.1 0.3 0.1
v -0.1 0.5 0.1
v 0.1 0.3 0.1
v 0.1 0.5 0.1
v 0.2 0.3 0.1
v 0.2 0.5 0.1
v -0.1 0.4 0
v -0.1 0.5 0
v 0.1 0.4 0
v 0.1 0.5 0
v -0.1 0.2 -0.1
v -0.1 0.4 -0.1
v 0.1 0.2 -0.1
v 0.1 0.4 -0.1
v -0.2 0 -0.2
v -0.2 0.2 -0.2
v 0.2 0 -0.2
v 0.2 0.2 -0.2
v -0.2 0 0.3
v 0.2 0 0.3
v -0.2 0 -0.2
v 0.2 0 -0.2
v -0.1 0.3 0.3
v 0.1 0.3 0.3
v -0.2 0.3 0.2
v -0.1 0.3 0.2
v 0.1 0.3 0.2
v 0.2 0.3 0.2
v -0.2 0.3 0.1
v -0.1 0.3 0.1
v 0.1 0.3 0.1
v 0.2 0.3 0.1
v -0.2 0.2 0.3
v 0.2 0.2 0.3
v -0.1 0.2 0.2
v 0.1 0.2 0.2
v -0.1 0.2 -0.1
v 0.1 0.2 -0.1
v -0.2 0.2 -0.2
v 0.2 0.2 -0.2
v -0.1 0.4 0
v 0.1 0.4 0
v -0.1 0.4 -0.1
v 0.1 0.4 -0.1
v -0.1 0.5 0.3
v 0.1 0.5 0.3
v -0.2 0.5 0.2
v -0.1 0.5 0.2
v 0.1 0.5 0.2
v 0.2 0.5 0.2
v -0.2 0.5 0.1
v -0.1 0.5 0.1
v 0.1 0.5 0.1
v 0.2 0.5 0.1
v -0.1 0.5 0
v 0.1 0.5 0

# faces
f 3/1/1 2/1/1 1/1/1
f 4/1/1 2/1/1 3/1/1
f 7/2/1 6/2/1 5/2/1
f 8/2/1 6/2/1 7/2/1
f 12/2/1 10/2/1 9/2/1
f 13/2/1 10/2/1 12/2/1
f 14/2/1 10/2/1 13/2/1
f 15/2/1 10/2/1 14/2/1
f 16/2/1 12/2/1 11/2/1
f 17/2/1 12/2/1 16/2/1
f 18/2/1 14/2/1 13/2/1
f 19/2/1 14/2/1 18/2/1
f 20/2/2 21/2/2 23/2/2
f 23/2/2 21/2/2 24/2/2
f 24/2/2 21/2/2 25/2/2
f 25/2/2 21/2/2 26/2/2
f 22/2/2 23/2/2 27/2/2
f 27/2/2 23/2/2 28/2/2
f 24/2/2 25/2/2 29/2/2
f 29/2/2 25/2/2 30/2/2
f 31/1/2 32/1/2 33/1/2
f 33/1/2 32/1/2 34/1/2
f 35/2/2 36/2/2 37/2/2
f 37/2/2 36/2/2 38/2/2
f 43/2/3 42/2/3 41/2/3
f 44/2/3 42/2/3 43/2/3
f 45/1/3 40/1/3 39/1/3
f 46/1/3 40/1/3 45/1/3
f 50/2/3 48/2/3 47/2/3
f 51/2/3 48/2/3 50/2/3
f 52/2/3 50/2/3 49/2/3
f 53/2/3 50/2/3 52/2/3
f 55/2/3 54/2/3 53/2/3
f 56/2/3 54/2/3 55/2/3
f 57/2/4 58/2/4 59/2/4
f 59/2/4 58/2/4 60/2/4
f 61/2/4 62/2/4 63/2/4
f 63/2/4 62/2/4 64/2/4
f 65/2/4 66/2/4 67/2/4
f 67/2/4 66/2/4 68/2/4
f 69/2/4 70/2/4 71/2/4
f 71/2/4 70/2/4 72/2/4
f 73/1/4 74/1/4 75/1/4
f 75/1/4 74/1/4 76/1/4
f 79/1/5 78/1/5 77/1/5
f 80/1/5 78/1/5 79/1/5
f 84/2/5 82/2/5 81/2/5
f 85/2/5 82/2/5 84/2/5
f 87/2/5 84/2/5 83/2/5
f 88/2/5 84/2/5 87/2/5
f 89/2/5 86/2/5 85/2/5
f 90/2/5 86/2/5 89/2/5
f 91/1/6 92/1/6 93/1/6
f 93/1/6 92/1/6 94/1/6
f 91/1/6 93/1/6 95/1/6
f 94/1/6 92/1/6 96/1/6
f 91/1/6 95/1/6 97/1/6
f 95/1/6 96/1/6 97/1/6
f 96/1/6 92/1/6 98/1/6
f 97/1/6 96/1/6 98/1/6
f 99/2/6 100/2/6 101/2/6
f 101/2/6 100/2/6 102/2/6
f 103/2/6 104/2/6 106/2/6
f 106/2/6 104/2/6 107/2/6
f 105/2/6 106/2/6 109/2/6
f 107/2/6 108/2/6 109/2/6
f 106/2/6 107/2/6 109/2/6
f 109/2/6 108/2/6 110/2/6
f 110/2/6 108/2/6 111/2/6
f 111/2/6 108/2/6 112/2/6
f 110/2/6 111/2/6 113/2/6
f 113/2/6 111/2/6 114/2/6
