# MagicaVoxel @ Ephtracy

# group
o 

# material
mtllib M_body.mtl
usemtl palette

# normals
vn -1 0 0
vn 1 0 0
vn 0 0 1
vn 0 0 -1
vn 0 -1 0
vn 0 1 0

# texcoords
vt 0.0957031 0.5
vt 0.845703 0.5
vt 0.904297 0.5
vt 0.919922 0.5
vt 0.923828 0.5

# verts
v -0.4 0.2 0.2
v -0.4 0.2 0
v -0.4 0.3 0.2
v -0.4 0.3 0
v -0.3 0 0.2
v -0.3 0 -0.2
v -0.3 0.2 0.2
v -0.3 0.2 0
v -0.3 0.2 -0.2
v -0.3 0.3 0.2
v -0.3 0.3 0.1
v -0.3 0.3 0
v -0.3 0.3 -0.2
v -0.3 0.4 0.2
v -0.3 0.4 0.1
v -0.3 0.5 0.2
v -0.3 0.5 -0.2
v 0.1 0.3 0.2
v 0.1 0.3 0.1
v 0.1 0.4 0.2
v 0.1 0.4 0.1
v -0.1 0.3 0.2
v -0.1 0.3 0.1
v -0.1 0.4 0.2
v -0.1 0.4 0.1
v 0.3 0 0.2
v 0.3 0 -0.2
v 0.3 0.2 0.2
v 0.3 0.2 0
v 0.3 0.2 -0.2
v 0.3 0.3 0.2
v 0.3 0.3 0.1
v 0.3 0.3 0
v 0.3 0.3 -0.2
v 0.3 0.4 0.2
v 0.3 0.4 0.1
v 0.3 0.5 0.2
v 0.3 0.5 -0.2
v 0.4 0.2 0.2
v 0.4 0.2 0
v 0.4 0.3 0.2
v 0.4 0.3 0
v -0.4 0.2 0.2
v -0.4 0.3 0.2
v -0.3 0 0.2
v -0.3 0.2 0.2
v -0.3 0.3 0.2
v -0.3 0.4 0.2
v -0.3 0.5 0.2
v -0.1 0.1 0.2
v -0.1 0.2 0.2
v -0.1 0.3 0.2
v -0.1 0.4 0.2
v 0.1 0.1 0.2
v 0.1 0.2 0.2
v 0.1 0.3 0.2
v 0.1 0.4 0.2
v 0.3 0 0.2
v 0.3 0.2 0.2
v 0.3 0.3 0.2
v 0.3 0.4 0.2
v 0.3 0.5 0.2
v 0.4 0.2 0.2
v 0.4 0.3 0.2
v -0.1 0.3 0.1
v -0.1 0.4 0.1
v 0.1 0.3 0.1
v 0.1 0.4 0.1
v -0.4 0.2 0
v -0.4 0.3 0
v -0.3 0.2 0
v -0.3 0.3 0
v 0.3 0.2 0
v 0.3 0.3 0
v 0.4 0.2 0
v 0.4 0.3 0
v -0.3 0 -0.2
v -0.3 0.2 -0.2
v -0.3 0.3 -0.2
v -0.3 0.5 -0.2
v -0.1 0.1 -0.2
v -0.1 0.2 -0.2
v 0.1 0.1 -0.2
v 0.1 0.2 -0.2
v 0.3 0 -0.2
v 0.3 0.2 -0.2
v 0.3 0.3 -0.2
v 0.3 0.5 -0.2
v -0.3 0 0.2
v 0.3 0 0.2
v -0.3 0 -0.2
v 0.3 0 -0.2
v -0.4 0.2 0.2
v -0.3 0.2 0.2
v 0.3 0.2 0.2
v 0.4 0.2 0.2
v -0.4 0.2 0
v -0.3 0.2 0
v 0.3 0.2 0
v 0.4 0.2 0
v -0.1 0.4 0.2
v 0.1 0.4 0.2
v -0.1 0.4 0.1
v 0.1 0.4 0.1
v -0.4 0.3 0.2
v -0.3 0.3 0.2
v -0.1 0.3 0.2
v 0.1 0.3 0.2
v 0.3 0.3 0.2
v 0.4 0.3 0.2
v -0.3 0.3 0.1
v -0.1 0.3 0.1
v 0.1 0.3 0.1
v 0.3 0.3 0.1
v -0.4 0.3 0
v -0.3 0.3 0
v 0.3 0.3 0
v 0.4 0.3 0
v -0.3 0.5 0.2
v 0.3 0.5 0.2
v -0.3 0.5 -0.2
v 0.3 0.5 -0.2

# faces
f 3/1/1 2/1/1 1/1/1
f 4/1/1 2/1/1 3/1/1
f 7/4/1 6/4/1 5/4/1
f 8/4/1 6/4/1 7/4/1
f 9/4/1 6/4/1 8/4/1
f 12/3/1 9/3/1 8/3/1
f 13/3/1 9/3/1 12/3/1
f 14/2/1 11/2/1 10/2/1
f 15/4/1 12/4/1 11/4/1
f 15/2/1 11/2/1 14/2/1
f 15/4/1 13/4/1 12/4/1
f 16/4/1 15/4/1 14/4/1
f 17/4/1 13/4/1 15/4/1
f 17/4/1 15/4/1 16/4/1
f 20/2/1 19/2/1 18/2/1
f 21/2/1 19/2/1 20/2/1
f 22/2/2 23/2/2 24/2/2
f 24/2/2 23/2/2 25/2/2
f 26/4/2 27/4/2 28/4/2
f 28/4/2 27/4/2 29/4/2
f 29/4/2 27/4/2 30/4/2
f 29/3/2 30/3/2 33/3/2
f 33/3/2 30/3/2 34/3/2
f 31/2/2 32/2/2 35/2/2
f 32/4/2 33/4/2 36/4/2
f 35/2/2 32/2/2 36/2/2
f 33/4/2 34/4/2 36/4/2
f 35/4/2 36/4/2 37/4/2
f 36/4/2 34/4/2 38/4/2
f 37/4/2 36/4/2 38/4/2
f 39/1/2 40/1/2 41/1/2
f 41/1/2 40/1/2 42/1/2
f 46/1/3 44/1/3 43/1/3
f 47/1/3 44/1/3 46/1/3
f 50/4/3 46/4/3 45/4/3
f 51/3/3 47/3/3 46/3/3
f 51/4/3 46/4/3 50/4/3
f 52/2/3 48/2/3 47/2/3
f 52/3/3 47/3/3 51/3/3
f 53/4/3 49/4/3 48/4/3
f 53/2/3 48/2/3 52/2/3
f 54/4/3 50/4/3 45/4/3
f 54/3/3 51/3/3 50/3/3
f 55/5/3 52/5/3 51/5/3
f 55/3/3 51/3/3 54/3/3
f 56/5/3 52/5/3 55/5/3
f 57/4/3 49/4/3 53/4/3
f 58/4/3 54/4/3 45/4/3
f 58/4/3 55/4/3 54/4/3
f 59/3/3 56/3/3 55/3/3
f 59/4/3 55/4/3 58/4/3
f 60/2/3 57/2/3 56/2/3
f 60/3/3 56/3/3 59/3/3
f 61/4/3 49/4/3 57/4/3
f 61/2/3 57/2/3 60/2/3
f 62/4/3 49/4/3 61/4/3
f 63/1/3 60/1/3 59/1/3
f 64/1/3 60/1/3 63/1/3
f 67/4/3 66/4/3 65/4/3
f 68/4/3 66/4/3 67/4/3
f 69/1/4 70/1/4 71/1/4
f 71/1/4 70/1/4 72/1/4
f 73/1/4 74/1/4 75/1/4
f 75/1/4 74/1/4 76/1/4
f 77/4/4 78/4/4 81/4/4
f 78/3/4 79/3/4 82/3/4
f 81/4/4 78/4/4 82/4/4
f 77/4/4 81/4/4 83/4/4
f 81/3/4 82/3/4 83/3/4
f 82/3/4 79/3/4 84/3/4
f 83/3/4 82/3/4 84/3/4
f 77/4/4 83/4/4 85/4/4
f 83/4/4 84/4/4 85/4/4
f 84/3/4 79/3/4 86/3/4
f 85/4/4 84/4/4 86/4/4
f 79/4/4 80/4/4 87/4/4
f 86/3/4 79/3/4 87/3/4
f 87/4/4 80/4/4 88/4/4
f 91/4/5 90/4/5 89/4/5
f 92/4/5 90/4/5 91/4/5
f 97/1/5 94/1/5 93/1/5
f 98/1/5 94/1/5 97/1/5
f 99/1/5 96/1/5 95/1/5
f 100/1/5 96/1/5 99/1/5
f 103/4/5 102/4/5 101/4/5
f 104/4/5 102/4/5 103/4/5
f 105/1/6 106/1/6 111/1/6
f 107/5/6 108/5/6 112/5/6
f 112/5/6 108/5/6 113/5/6
f 109/1/6 110/1/6 114/1/6
f 105/1/6 111/1/6 115/1/6
f 115/1/6 111/1/6 116/1/6
f 114/1/6 110/1/6 117/1/6
f 117/1/6 110/1/6 118/1/6
f 119/4/6 120/4/6 121/4/6
f 121/4/6 120/4/6 122/4/6
